# xmcd CD database file
#
# Track frame offsets:
#	183
#	10478
#	21375
#	32888
#	46253
#	57430
#	69025
#	86165
#	98768
#	108718
#	120593
#	131575
#	141913
#	152233
#	163385
#	171643
#	184183
#	194425
#
# Disc length: 2767 seconds
#
# Revision: 1
# Processed by: cddbd v1.5.2PL0 Copyright (c) Steve Scherf et al.
# Submitted via: CDex 1.50beta10
#
DISCID=0b0acd12
DTITLE=Various Artist - Classic Country Collection  Disc 2
DYEAR=1980
DGENRE=Country
TTITLE0=Dave Dudley - Six Days On The Road
TTITLE1=Mickey Gilley - Without You
TTITLE2=Reg Lindsay - Reuben James
TTITLE3=Carl Perkins - Country Road
TTITLE4=Patsy Cline - Stop The World And Let Me Get Off
TTITLE5=Floyd Cramer - Fancy Pants
TTITLE6=Charlie McCoy - Ode To Billie Joe
TTITLE7=Lynn Anderson - I Fall To Pieces
TTITLE8=Johnny Cash - The Ways of a Woman In Love
TTITLE9=Willie Nelson - Shelter of Your Arms
TTITLE10=George Jones - I'll Share My World With You
TTITLE11=Faron Young- Hello Walls
TTITLE12=Gene Autry - San Antonio Rose
TTITLE13=Dolly Parton - Dumb Blond
TTITLE14=Fats Domino - Red Sails In The Sunset
TTITLE15=Marty Robbins - Tumbling Tumbleweeds
TTITLE16=Tex Williams - Tennessee Travelling Man
TTITLE17=Don Williams - Ruby Tuesday
EXTD=YEAR: 1980
EXTT0=
EXTT1=
EXTT2=
EXTT3=
EXTT4=
EXTT5=
EXTT6=
EXTT7=
EXTT8=
EXTT9=
EXTT10=
EXTT11=
EXTT12=
EXTT13=
EXTT14=
EXTT15=
EXTT16=
EXTT17=
PLAYORDER=
